<?xml version="1.0" encoding="utf-8"?>
<!-- Generator: Adobe Illustrator 16.0.1, SVG Export Plug-In . SVG Version: 6.00 Build 0)  -->
<!DOCTYPE svg PUBLIC "-//W3C//DTD SVG 1.1//EN" "http://www.w3.org/Graphics/SVG/1.1/DTD/svg11.dtd">
<svg version="1.1" id="Layer_1" xmlns="http://www.w3.org/2000/svg" xmlns:xlink="http://www.w3.org/1999/xlink" x="0px" y="0px"
	 width="198px" height="501px" viewBox="0 0 198 501" enable-background="new 0 0 198 501" xml:space="preserve">
<g>
	<path fill="#FFD9AC" d="M0,175.5v126c0,0,14.143,15.75,28.286,0V191.25c0,0,0-15.75,14.143,0V490.5c0,0,21.214,23.625,42.428,0
		V317.25c0,0,14.143-15.75,28.286,0V490.5c0,0,21.215,23.625,42.429,0V191.25c0,0,14.143-15.75,14.143,0V301.5
		c0,0,14.144,15.75,28.286,0v-126c0,0,0-47.25-42.429-47.25s-42.429,0-42.429,0l0,0c0,0,42.429,0,42.429-31.5s0-47.25,0-47.25
		s0-31.5-42.429-31.5c-42.428,0-28.286,0-28.286,0s-42.428,0-42.428,31.5s0,47.25,0,47.25s0,31.5,42.428,31.5s-42.428,0-42.428,0
		S0,128.25,0,175.5z"/>
	<path fill="#FBB040" d="M40.5,54v18H54V54c0,0,54,9,67.5,0s27-9,27-9v27H162V27c0,0-27-27-54-27S67.5,0,67.5,0s-27,9-27,27
		S27,36,27,36s0,9,13.5,9V54z"/>
</g>
</svg>
