<?xml version="1.0" encoding="utf-8"?>
<!-- Generator: Adobe Illustrator 16.0.1, SVG Export Plug-In . SVG Version: 6.00 Build 0)  -->
<!DOCTYPE svg PUBLIC "-//W3C//DTD SVG 1.1//EN" "http://www.w3.org/Graphics/SVG/1.1/DTD/svg11.dtd">
<svg version="1.1" id="Layer_1" xmlns="http://www.w3.org/2000/svg" xmlns:xlink="http://www.w3.org/1999/xlink" x="0px" y="0px"
	 width="135px" height="128.25px" viewBox="0 0 135 128.25" enable-background="new 0 0 135 128.25" xml:space="preserve">
<g>
	<path fill="#D1D9AC" d="M86.143,128.25L86.143,128.25c0,0,42.43,0,42.43-31.5s0-47.25,0-47.25s0-31.5-42.43-31.5
		c-42.428,0-28.286,0-28.286,0s-42.428,0-42.428,31.5s0,47.25,0,47.25s0,31.5,42.428,31.5
		C100.285,128.25,86.143,128.25,86.143,128.25z"/>
	<path fill="#FBB040" d="M13.5,54v18H27V54c0,0,54,9,67.5,0s27-9,27-9v27H135V27c0,0-27-27-54-27S40.5,0,40.5,0s-27,9-27,27
		S0,36,0,36s0,9,13.5,9V54z"/>
</g>
<circle fill="#FFFFFF" cx="45" cy="72" r="9"/>
<circle fill="#FFFFFF" cx="99" cy="72" r="9"/>
<circle fill="#006838" cx="99" cy="72" r="4.5"/>
<circle fill="#006838" cx="45" cy="72" r="4.5"/>
<rect x="30" y="76.5" fill="#D1D9AC" width="27.5" height="13.5"/>
<rect x="85.25" y="76.5" fill="#D1D9AC" width="27.5" height="13.5"/>
<rect x="30" y="62.887" fill="#D1D9AC" width="27.5" height="6.727"/>
<rect x="31.25" y="62.887" fill="#D1D9AC" width="27.5" height="6.727"/>
<rect x="85.25" y="62.887" fill="#D1D9AC" width="27.5" height="6.727"/>
<rect x="49.5" y="105.333" width="45" height="5.073"/>
<path fill="#D1D9AC" d="M100.285,128.25"/>
</svg>
