<?xml version="1.0" encoding="utf-8"?>
<!-- Generator: Adobe Illustrator 16.0.1, SVG Export Plug-In . SVG Version: 6.00 Build 0)  -->
<!DOCTYPE svg PUBLIC "-//W3C//DTD SVG 1.1//EN" "http://www.w3.org/Graphics/SVG/1.1/DTD/svg11.dtd">
<svg version="1.1" id="Layer_1" xmlns="http://www.w3.org/2000/svg" xmlns:xlink="http://www.w3.org/1999/xlink" x="0px" y="0px"
	 width="97.062px" height="47.52px" viewBox="0 0 97.062 47.52" enable-background="new 0 0 97.062 47.52" xml:space="preserve">
<g>
	<path fill="#75565E" d="M13.902,1.828C7.685,4.747,0,14.883,0,21.41c0,6.528,6.951,26.11,13.902,26.11
		c6.951,0,13.902,0,13.902-6.527s-6.951-13.055-6.951-13.055V14.883c0,0,0-6.528,6.951-6.528C34.755,8.355,27.804-4.7,13.902,1.828z
		"/>
	<path fill="#75565E" d="M83.16,1.828c6.217,2.919,13.902,13.056,13.902,19.583S90.111,47.52,83.16,47.52s-13.902,0-13.902-6.527
		s6.951-13.055,6.951-13.055V14.883c0,0,0-6.528-6.951-6.528S69.257-4.7,83.16,1.828z"/>
</g>
</svg>
