<?xml version="1.0" encoding="utf-8"?>
<!-- Generator: Adobe Illustrator 16.0.1, SVG Export Plug-In . SVG Version: 6.00 Build 0)  -->
<!DOCTYPE svg PUBLIC "-//W3C//DTD SVG 1.1//EN" "http://www.w3.org/Graphics/SVG/1.1/DTD/svg11.dtd">
<svg version="1.1" id="Layer_1" xmlns="http://www.w3.org/2000/svg" xmlns:xlink="http://www.w3.org/1999/xlink" x="0px" y="0px"
	 width="152.188px" height="132.832px" viewBox="0 0 152.188 132.832" enable-background="new 0 0 152.188 132.832"
	 xml:space="preserve">
<path fill="#9A5C43" d="M152.146,6.832c0,0,1.299,90-10.397,99c-11.697,9-11.697,18-11.697,18v9h-11.697c0,0-11.697-18,0-45
	c11.697-27,11.697-27,11.697-36s0-36,0-36L152.146,6.832z"/>
<path fill="#9A5C43" d="M11.52,3.832c0,0-18,61.455-9,73.746s0,12.291,18,24.582c18,12.292,18-24.582,18-24.582s-9-12.291-9-24.582
	s-9-49.164,0-49.164S11.52,3.832,11.52,3.832z"/>
<path fill="#C67758" d="M80.926,29.25c0,0-27.137,0-36.182-18c-9.046-18-9.046-9-27.137-9s0,27,0,27s27.137,27,63.319,27
	c36.182,0,63.318-27,63.318-27s18.091-27,0-27c-18.091,0-18.091-9-27.137,9S89.971,29.25,80.926,29.25z"/>
</svg>
