<?xml version="1.0" encoding="utf-8"?>
<!-- Generator: Adobe Illustrator 16.0.1, SVG Export Plug-In . SVG Version: 6.00 Build 0)  -->
<!DOCTYPE svg PUBLIC "-//W3C//DTD SVG 1.1//EN" "http://www.w3.org/Graphics/SVG/1.1/DTD/svg11.dtd">
<svg version="1.1" id="Layer_1" xmlns="http://www.w3.org/2000/svg" xmlns:xlink="http://www.w3.org/1999/xlink" x="0px" y="0px"
	 width="77.5px" height="90px" viewBox="0 0 77.5 90" enable-background="new 0 0 77.5 90" xml:space="preserve">
<path fill="#D67470" d="M22.5,0v18c0,0,0,6,9,6s18,18,18,18s-18,6-27,0S0,48,0,57s13.5,33,31.5,33s0,0,0-12c0,0-9,0-9-12
	c0,0,9,12,27,6s27-24,27-24s9-30-27-30c0,0-18,12-18-18H22.5z"/>
</svg>
